<svg width="1046" height="150" viewBox="0 0 1046 150" fill="none" xmlns="http://www.w3.org/2000/svg">
<g filter="url(#filter0_d_199_14)">
<path d="M34.6972 78.5286C35.5703 75.3115 36.4434 72.0944 37.3165 68.8773C30.806 67.1757 24.2955 65.4742 17.785 63.7727C16.9724 67.0056 16.1598 70.2385 15.3471 73.4714C11.4835 88.8423 7.61989 104.213 3.75627 119.584L0.540793 131.439L13 131.554C14.9274 131.536 16.8548 131.518 18.7822 131.5C338.746 128.5 658.709 125.5 978.673 122.5C996.449 122.333 1014.22 122.167 1032 122C1014.22 121.833 996.449 121.667 978.673 121.5C658.709 118.5 338.746 115.5 18.7822 112.5C16.8548 112.482 14.9274 112.464 13 112.446L22.2437 124.416C26.3949 109.12 30.5461 93.8243 34.6972 78.5286Z" fill="#F5E9DF"/>
</g>
<g filter="url(#filter1_d_199_14)">
<path d="M51.2 64.3C51.2 56.9 52.7667 50.4 55.9 44.8C59.1 39.1333 63.7667 34.7333 69.9 31.6C76.0333 28.4 83.5667 26.8 92.5 26.8C96.1667 26.8 99.4667 27.0667 102.4 27.6C105.333 28.1333 107.567 28.7333 109.1 29.4V44.7H108C106.533 43.9 104.467 43.2333 101.8 42.7C99.1333 42.1 96.2667 41.8 93.2 41.8C85.2 41.8 79.2 43.7333 75.2 47.6C71.2667 51.4667 69.3 57.1333 69.3 64.6C69.3 69.2 70.1333 73.1667 71.8 76.5C73.4667 79.7667 75.8333 82.2667 78.9 84C81.9667 85.7333 85.6 86.6 89.8 86.6C91.8 86.6 93.5 86.4 94.9 86C96.3 85.6 97.5333 84.9 98.6 83.9L95.3 93.2V63.2H111.6V97.2C109 98.4 105.8 99.3667 102 100.1C98.2667 100.833 94.1333 101.2 89.6 101.2C81.0667 101.2 73.9667 99.6667 68.3 96.6C62.6333 93.5333 58.3667 89.2333 55.5 83.7C52.6333 78.1 51.2 71.6333 51.2 64.3ZM135.684 82.9V68.5H152.584C155.918 68.5 158.618 67.8 160.684 66.4C162.818 64.9333 164.384 63.0667 165.384 60.8C166.384 58.5333 166.884 56.1 166.884 53.5C166.884 49.8333 165.818 47.1333 163.684 45.4C161.618 43.6667 158.851 42.8 155.384 42.8H135.684V28H155.484C162.018 28 167.418 29.0333 171.684 31.1C176.018 33.1 179.251 35.9667 181.384 39.7C183.584 43.4333 184.684 47.8333 184.684 52.9C184.684 57.5667 183.818 61.7667 182.084 65.5C180.351 69.1667 177.984 72.3 174.984 74.9C172.051 77.5 168.684 79.5 164.884 80.9C161.084 82.2333 157.118 82.9 152.984 82.9H135.684ZM126.084 100V28H143.884V100H126.084ZM167.284 100L152.884 79.2L169.484 76.4L186.884 99V100H167.284ZM197.959 100V28H215.759V100H197.959ZM207.559 100V84.6H246.759V100H207.559ZM207.559 71.2V56.6H240.759V71.2H207.559ZM207.559 43.4V28H245.859V43.4H207.559ZM259.288 100V28H277.088V100H259.288ZM268.888 100V84.6H308.088V100H268.888ZM268.888 71.2V56.6H302.088V71.2H268.888ZM268.888 43.4V28H307.188V43.4H268.888ZM320.616 100V28H334.816L370.516 64.1V87.4L333.316 49.8L338.416 47.7V100H320.616ZM364.616 100V28H382.316V100H364.616ZM419.202 81.6H420.202C421.868 82.4667 423.868 83.3 426.202 84.1C428.535 84.9 431.068 85.5667 433.802 86.1C436.602 86.5667 439.402 86.8 442.202 86.8C445.135 86.8 447.568 86.6 449.502 86.2C451.502 85.8 453.002 85.1667 454.002 84.3C455.068 83.3667 455.602 82.1333 455.602 80.6C455.602 78.6667 454.935 77.2333 453.602 76.3C452.335 75.3667 450.035 74.6333 446.702 74.1L440.102 73.1C435.168 72.3667 430.968 71.1 427.502 69.3C424.102 67.5 421.535 65.1333 419.802 62.2C418.068 59.2 417.202 55.6 417.202 51.4C417.202 46.2667 418.402 41.8667 420.802 38.2C423.268 34.5333 427.002 31.7333 432.002 29.8C437.002 27.8 443.402 26.8 451.202 26.8C454.668 26.8 458.002 27.1 461.202 27.7C464.402 28.2333 467.068 28.9667 469.202 29.9V45H468.102C466.102 44.0667 463.535 43.2 460.402 42.4C457.268 41.6 453.768 41.2 449.902 41.2C446.568 41.2 443.735 41.5333 441.402 42.2C439.135 42.8667 437.402 43.9 436.202 45.3C435.002 46.6333 434.402 48.3333 434.402 50.4C434.402 53.0667 435.268 54.9667 437.002 56.1C438.735 57.2333 441.535 58.1333 445.402 58.8L451.702 59.8C455.635 60.4 459.202 61.4667 462.402 63C465.668 64.5333 468.235 66.6667 470.102 69.4C472.035 72.1333 473.002 75.7333 473.002 80.2C473.002 84 472.202 87.2667 470.602 90C469.002 92.6667 466.768 94.8333 463.902 96.5C461.102 98.1 457.835 99.2667 454.102 100C450.435 100.8 446.468 101.2 442.202 101.2C439.202 101.2 436.235 101 433.302 100.6C430.435 100.267 427.768 99.8 425.302 99.2C422.835 98.6 420.802 97.9667 419.202 97.3V81.6ZM478.292 28H537.892V43.4H516.892V100H499.192V43.4H478.292V28ZM538.486 100L546.486 52.8C547.353 47.6 548.753 43.3333 550.686 40C552.619 36.6667 555.019 34.0667 557.886 32.2C560.819 30.3333 564.253 29.0333 568.186 28.3C572.119 27.5667 576.519 27.2 581.386 27.2C584.186 27.2 587.219 27.3667 590.486 27.7C593.753 28.0333 596.719 28.5 599.386 29.1L599.586 30.3C599.319 31.5 599.119 33.1 598.986 35.1C598.919 37.1 598.853 39.1333 598.786 41.2C598.786 43.2667 598.786 44.9667 598.786 46.3V100H581.086V48.1C581.086 46.1667 581.153 44.4 581.286 42.8C581.486 41.1333 581.719 39.6333 581.986 38.3L584.286 42.6C583.553 42.4 582.553 42.2667 581.286 42.2C580.086 42.0667 578.953 42 577.886 42C574.753 42 572.253 42.4333 570.386 43.3C568.519 44.1 567.086 45.3333 566.086 47C565.153 48.6667 564.453 50.8 563.986 53.4L556.286 100H538.486ZM551.286 81.6V67.4H589.286V81.6H551.286ZM614.073 100V28H629.073L653.973 68.9L646.673 69L671.173 28H686.173V100H668.473V53.5L672.073 54.5L654.373 83.9H645.873L628.173 54.9L631.873 53.9V100H614.073ZM710.977 81.6V67.3H727.377C730.711 67.3 733.377 66.6333 735.377 65.3C737.444 63.9667 738.911 62.2 739.777 60C740.711 57.8 741.177 55.3667 741.177 52.7C741.177 49.2333 740.177 46.7333 738.177 45.2C736.244 43.6 733.711 42.8 730.577 42.8H710.977V28H730.377C739.711 28 746.777 30.1333 751.577 34.4C756.377 38.6667 758.777 44.6 758.777 52.2C758.777 56.2667 758.111 60.1 756.777 63.7C755.511 67.3 753.577 70.4333 750.977 73.1C748.377 75.7667 745.144 77.8667 741.277 79.4C737.477 80.8667 733.044 81.6 727.977 81.6H710.977ZM701.377 100V28H719.177V100H701.377Z" fill="#F5E9DF"/>
</g>
<path d="M762.783 105.624L762.401 107.5H754.756L757.305 95.522H759.463L757.305 105.624H762.783ZM767.359 106.047C767.74 106.047 768.095 105.973 768.421 105.823C768.753 105.668 769.03 105.461 769.251 105.201C769.478 104.935 769.63 104.636 769.708 104.304L769.899 103.424L767.832 103.516C767.212 103.543 766.728 103.679 766.379 103.922C766.036 104.16 765.864 104.479 765.864 104.877C765.864 105.22 766.003 105.502 766.279 105.724C766.562 105.939 766.921 106.047 767.359 106.047ZM766.545 107.649C766.03 107.649 765.566 107.542 765.151 107.326C764.741 107.104 764.417 106.806 764.179 106.429C763.941 106.053 763.822 105.63 763.822 105.159C763.822 104.246 764.171 103.524 764.868 102.993C765.566 102.461 766.548 102.174 767.815 102.129L770.189 102.038L770.314 101.457C770.33 101.368 770.341 101.299 770.347 101.25C770.358 101.194 770.363 101.142 770.363 101.092C770.363 100.727 770.214 100.439 769.915 100.229C769.622 100.018 769.215 99.9131 768.695 99.9131C768.413 99.9131 768.155 99.9491 767.923 100.021C767.691 100.093 767.494 100.198 767.334 100.336C767.173 100.469 767.051 100.638 766.968 100.843H764.96C765.092 100.306 765.339 99.8439 765.698 99.4565C766.058 99.0636 766.509 98.762 767.051 98.5518C767.594 98.3415 768.194 98.2363 768.853 98.2363C769.567 98.2363 770.189 98.347 770.72 98.5684C771.252 98.7842 771.664 99.0885 771.957 99.4814C772.256 99.8743 772.405 100.334 772.405 100.859C772.405 100.981 772.397 101.106 772.381 101.233C772.369 101.36 772.353 101.482 772.331 101.598L771.077 107.5H769.077L769.326 106.354H769.176C768.994 106.62 768.764 106.85 768.487 107.043C768.211 107.237 767.906 107.387 767.574 107.492C767.248 107.597 766.905 107.649 766.545 107.649ZM774.175 101.092C774.175 100.516 774.33 100.015 774.64 99.5894C774.95 99.1632 775.379 98.8312 775.927 98.5933C776.474 98.3553 777.103 98.2363 777.811 98.2363C778.514 98.2363 779.125 98.347 779.645 98.5684C780.171 98.7842 780.589 99.0885 780.899 99.4814C781.209 99.8743 781.389 100.334 781.438 100.859H779.513C779.463 100.638 779.36 100.45 779.205 100.295C779.056 100.14 778.86 100.021 778.616 99.938C778.378 99.8494 778.104 99.8052 777.794 99.8052C777.484 99.8052 777.208 99.8522 776.964 99.9463C776.721 100.035 776.527 100.162 776.383 100.328C776.245 100.489 776.176 100.674 776.176 100.884C776.176 101.111 776.267 101.308 776.45 101.474C776.638 101.64 776.914 101.784 777.28 101.905L778.666 102.378C779.413 102.627 779.952 102.943 780.285 103.325C780.622 103.707 780.791 104.194 780.791 104.786C780.791 105.356 780.628 105.859 780.301 106.296C779.975 106.734 779.521 107.074 778.94 107.317C778.359 107.561 777.692 107.683 776.939 107.683C776.203 107.683 775.553 107.569 774.989 107.342C774.424 107.11 773.976 106.789 773.644 106.379C773.317 105.97 773.138 105.494 773.104 104.952H775.121C775.204 105.289 775.409 105.569 775.736 105.79C776.062 106.011 776.472 106.122 776.964 106.122C777.313 106.122 777.617 106.075 777.877 105.981C778.143 105.887 778.348 105.757 778.492 105.591C778.641 105.419 778.716 105.223 778.716 105.001C778.716 104.786 778.641 104.595 778.492 104.429C778.348 104.263 778.088 104.119 777.711 103.997L776.3 103.524C775.586 103.275 775.052 102.957 774.698 102.569C774.349 102.182 774.175 101.689 774.175 101.092ZM785.375 107.542C784.655 107.542 784.069 107.378 783.615 107.052C783.167 106.725 782.942 106.258 782.942 105.649C782.942 105.533 782.951 105.408 782.967 105.275C782.984 105.137 783.006 104.999 783.034 104.86L784.046 100.121H782.569L782.909 98.4771H784.395L784.868 96.1943H786.943L786.454 98.4771H788.438L788.081 100.121H786.122L785.2 104.404C785.173 104.52 785.15 104.633 785.134 104.744C785.123 104.849 785.117 104.946 785.117 105.035C785.117 105.333 785.209 105.552 785.391 105.69C785.574 105.829 785.834 105.898 786.171 105.898C786.266 105.898 786.351 105.895 786.429 105.89C786.506 105.884 786.581 105.879 786.653 105.873C786.725 105.868 786.794 105.862 786.86 105.856L786.528 107.45C786.401 107.478 786.235 107.5 786.03 107.517C785.826 107.533 785.607 107.542 785.375 107.542ZM797.854 107.799C796.908 107.799 796.1 107.633 795.43 107.301C794.76 106.963 794.249 106.507 793.894 105.931C793.54 105.35 793.36 104.694 793.355 103.964C793.349 103.792 793.355 103.618 793.371 103.441C793.394 103.264 793.424 103.087 793.463 102.91L795.015 95.522H797.182L795.638 102.827C795.604 102.993 795.579 103.156 795.563 103.316C795.546 103.477 795.538 103.629 795.538 103.773C795.555 104.199 795.66 104.57 795.853 104.885C796.053 105.195 796.335 105.436 796.7 105.607C797.071 105.779 797.522 105.865 798.053 105.865C798.562 105.865 799.024 105.765 799.439 105.566C799.854 105.367 800.203 105.076 800.485 104.694C800.773 104.307 800.975 103.845 801.091 103.308L802.743 95.522H804.91L803.158 103.773C802.981 104.614 802.66 105.336 802.195 105.939C801.73 106.537 801.133 106.996 800.402 107.317C799.677 107.638 798.828 107.799 797.854 107.799ZM809.51 105.881C809.908 105.881 810.276 105.787 810.614 105.599C810.951 105.405 811.247 105.137 811.502 104.794C811.757 104.451 811.956 104.052 812.1 103.599C812.244 103.139 812.316 102.639 812.316 102.096C812.316 101.421 812.144 100.904 811.801 100.544C811.463 100.184 811.01 100.004 810.44 100.004C810.041 100.004 809.668 100.101 809.319 100.295C808.976 100.489 808.671 100.757 808.406 101.1C808.146 101.438 807.941 101.833 807.792 102.287C807.648 102.735 807.576 103.217 807.576 103.731C807.576 104.407 807.753 104.935 808.107 105.317C808.461 105.693 808.929 105.881 809.51 105.881ZM806.073 110.513H804.015L806.588 98.4189H808.58L808.315 99.6724H808.464C808.785 99.2463 809.186 98.9059 809.668 98.6514C810.155 98.3968 810.697 98.2695 811.295 98.2695C811.903 98.2695 812.443 98.4162 812.913 98.7095C813.389 98.9972 813.763 99.404 814.034 99.9297C814.31 100.45 814.449 101.059 814.449 101.756C814.449 102.597 814.333 103.377 814.1 104.097C813.868 104.811 813.541 105.433 813.121 105.964C812.706 106.496 812.219 106.911 811.66 107.209C811.106 107.503 810.506 107.649 809.858 107.649C809.421 107.649 809.023 107.575 808.663 107.425C808.303 107.27 807.999 107.057 807.75 106.786C807.501 106.509 807.327 106.197 807.227 105.848H807.086L806.073 110.513ZM818.734 107.649C818.13 107.649 817.585 107.506 817.098 107.218C816.617 106.924 816.235 106.509 815.953 105.973C815.671 105.436 815.53 104.797 815.53 104.055C815.53 103.22 815.646 102.45 815.878 101.748C816.116 101.039 816.445 100.428 816.866 99.9131C817.287 99.3929 817.776 98.9889 818.335 98.7012C818.9 98.4134 819.508 98.2695 820.161 98.2695C820.604 98.2695 821.005 98.3442 821.365 98.4937C821.725 98.6431 822.026 98.8506 822.27 99.1162C822.513 99.3763 822.685 99.6751 822.784 100.013H822.934L824.021 94.9077H826.088L823.415 107.5H821.423L821.689 106.247H821.539C821.224 106.673 820.825 107.013 820.344 107.268C819.863 107.522 819.326 107.649 818.734 107.649ZM819.58 105.915C819.984 105.915 820.358 105.818 820.701 105.624C821.044 105.43 821.346 105.162 821.606 104.819C821.866 104.476 822.068 104.08 822.212 103.632C822.356 103.184 822.428 102.699 822.428 102.179C822.428 101.51 822.25 100.987 821.896 100.61C821.542 100.229 821.074 100.038 820.493 100.038C820.101 100.038 819.733 100.129 819.389 100.312C819.046 100.494 818.745 100.751 818.485 101.083C818.23 101.41 818.031 101.797 817.887 102.246C817.743 102.694 817.671 103.184 817.671 103.715C817.671 104.384 817.851 104.918 818.211 105.317C818.57 105.715 819.027 105.915 819.58 105.915ZM829.161 106.047C829.543 106.047 829.897 105.973 830.224 105.823C830.556 105.668 830.832 105.461 831.054 105.201C831.281 104.935 831.433 104.636 831.51 104.304L831.701 103.424L829.634 103.516C829.014 103.543 828.53 103.679 828.182 103.922C827.838 104.16 827.667 104.479 827.667 104.877C827.667 105.22 827.805 105.502 828.082 105.724C828.364 105.939 828.724 106.047 829.161 106.047ZM828.348 107.649C827.833 107.649 827.368 107.542 826.953 107.326C826.544 107.104 826.22 106.806 825.982 106.429C825.744 106.053 825.625 105.63 825.625 105.159C825.625 104.246 825.974 103.524 826.671 102.993C827.368 102.461 828.35 102.174 829.618 102.129L831.992 102.038L832.116 101.457C832.133 101.368 832.144 101.299 832.149 101.25C832.16 101.194 832.166 101.142 832.166 101.092C832.166 100.727 832.017 100.439 831.718 100.229C831.424 100.018 831.018 99.9131 830.497 99.9131C830.215 99.9131 829.958 99.9491 829.726 100.021C829.493 100.093 829.297 100.198 829.136 100.336C828.976 100.469 828.854 100.638 828.771 100.843H826.762C826.895 100.306 827.141 99.8439 827.501 99.4565C827.861 99.0636 828.312 98.762 828.854 98.5518C829.396 98.3415 829.997 98.2363 830.655 98.2363C831.369 98.2363 831.992 98.347 832.523 98.5684C833.054 98.7842 833.466 99.0885 833.76 99.4814C834.059 99.8743 834.208 100.334 834.208 100.859C834.208 100.981 834.2 101.106 834.183 101.233C834.172 101.36 834.155 101.482 834.133 101.598L832.88 107.5H830.879L831.128 106.354H830.979C830.796 106.62 830.567 106.85 830.29 107.043C830.013 107.237 829.709 107.387 829.377 107.492C829.05 107.597 828.707 107.649 828.348 107.649ZM838.41 107.542C837.69 107.542 837.104 107.378 836.65 107.052C836.202 106.725 835.978 106.258 835.978 105.649C835.978 105.533 835.986 105.408 836.003 105.275C836.019 105.137 836.041 104.999 836.069 104.86L837.082 100.121H835.604L835.944 98.4771H837.43L837.903 96.1943H839.979L839.489 98.4771H841.473L841.116 100.121H839.157L838.235 104.404C838.208 104.52 838.186 104.633 838.169 104.744C838.158 104.849 838.152 104.946 838.152 105.035C838.152 105.333 838.244 105.552 838.426 105.69C838.609 105.829 838.869 105.898 839.207 105.898C839.301 105.898 839.387 105.895 839.464 105.89C839.541 105.884 839.616 105.879 839.688 105.873C839.76 105.868 839.829 105.862 839.896 105.856L839.564 107.45C839.436 107.478 839.27 107.5 839.066 107.517C838.861 107.533 838.642 107.542 838.41 107.542ZM843.782 102.038H848.082C848.087 102.01 848.09 101.963 848.09 101.897C848.096 101.831 848.098 101.767 848.098 101.706C848.098 101.368 848.026 101.061 847.883 100.785C847.744 100.508 847.54 100.289 847.268 100.129C847.003 99.9629 846.673 99.8799 846.281 99.8799C845.882 99.8799 845.514 99.9712 845.177 100.154C844.839 100.331 844.551 100.583 844.313 100.909C844.075 101.23 843.898 101.606 843.782 102.038ZM845.45 107.683C844.703 107.683 844.037 107.533 843.45 107.234C842.863 106.93 842.399 106.49 842.055 105.915C841.718 105.333 841.549 104.636 841.549 103.823C841.549 102.987 841.665 102.229 841.898 101.548C842.13 100.862 842.462 100.273 842.894 99.7803C843.325 99.2822 843.837 98.9004 844.429 98.6348C845.027 98.3691 845.68 98.2363 846.388 98.2363C847.08 98.2363 847.703 98.3885 848.256 98.6929C848.815 98.9917 849.261 99.4233 849.593 99.9878C849.925 100.547 850.091 101.216 850.091 101.997C850.091 102.174 850.077 102.409 850.049 102.702C850.021 102.99 849.991 103.233 849.958 103.433H843.55C843.544 103.488 843.539 103.543 843.533 103.599C843.533 103.648 843.533 103.701 843.533 103.756C843.533 104.282 843.63 104.711 843.824 105.043C844.023 105.375 844.277 105.618 844.587 105.773C844.897 105.928 845.226 106.006 845.575 106.006C846.09 106.006 846.507 105.915 846.828 105.732C847.149 105.549 847.387 105.303 847.542 104.993H849.576C849.443 105.519 849.189 105.984 848.812 106.388C848.442 106.792 847.971 107.11 847.401 107.342C846.831 107.569 846.181 107.683 845.45 107.683ZM854.434 107.649C853.83 107.649 853.285 107.506 852.798 107.218C852.317 106.924 851.935 106.509 851.653 105.973C851.371 105.436 851.229 104.797 851.229 104.055C851.229 103.22 851.346 102.45 851.578 101.748C851.816 101.039 852.145 100.428 852.566 99.9131C852.986 99.3929 853.476 98.9889 854.035 98.7012C854.6 98.4134 855.208 98.2695 855.861 98.2695C856.304 98.2695 856.705 98.3442 857.065 98.4937C857.425 98.6431 857.726 98.8506 857.97 99.1162C858.213 99.3763 858.385 99.6751 858.484 100.013H858.634L859.721 94.9077H861.788L859.115 107.5H857.123L857.389 106.247H857.239C856.924 106.673 856.525 107.013 856.044 107.268C855.562 107.522 855.026 107.649 854.434 107.649ZM855.28 105.915C855.684 105.915 856.058 105.818 856.401 105.624C856.744 105.43 857.046 105.162 857.306 104.819C857.566 104.476 857.768 104.08 857.912 103.632C858.055 103.184 858.127 102.699 858.127 102.179C858.127 101.51 857.95 100.987 857.596 100.61C857.242 100.229 856.774 100.038 856.193 100.038C855.8 100.038 855.432 100.129 855.089 100.312C854.746 100.494 854.445 100.751 854.185 101.083C853.93 101.41 853.731 101.797 853.587 102.246C853.443 102.694 853.371 103.184 853.371 103.715C853.371 104.384 853.551 104.918 853.911 105.317C854.27 105.715 854.727 105.915 855.28 105.915ZM862.877 107.666C862.49 107.666 862.172 107.539 861.923 107.284C861.673 107.03 861.549 106.731 861.549 106.388C861.549 106.011 861.673 105.696 861.923 105.441C862.172 105.181 862.49 105.051 862.877 105.051C863.27 105.051 863.588 105.179 863.832 105.433C864.081 105.688 864.205 105.986 864.205 106.33C864.205 106.706 864.081 107.024 863.832 107.284C863.588 107.539 863.27 107.666 862.877 107.666ZM864.172 101.615C863.785 101.615 863.466 101.487 863.217 101.233C862.968 100.978 862.844 100.68 862.844 100.336C862.844 99.9601 862.968 99.6447 863.217 99.3901C863.466 99.13 863.785 99 864.172 99C864.565 99 864.883 99.1273 865.127 99.3818C865.376 99.6309 865.5 99.9297 865.5 100.278C865.5 100.649 865.376 100.965 865.127 101.225C864.883 101.485 864.565 101.615 864.172 101.615ZM872.825 107.5H870.725L873.273 95.522H875.033L879.175 103.914H879.316L881.126 95.522H883.226L880.677 107.5H878.918L874.767 99.1577H874.618L872.825 107.5ZM887.569 105.956C888.061 105.956 888.509 105.793 888.913 105.466C889.317 105.134 889.638 104.694 889.876 104.146C890.12 103.599 890.241 102.995 890.241 102.337C890.241 101.59 890.075 101.009 889.743 100.594C889.411 100.173 888.952 99.9629 888.365 99.9629C887.834 99.9629 887.364 100.123 886.954 100.444C886.545 100.76 886.221 101.2 885.983 101.764C885.751 102.323 885.634 102.962 885.634 103.682C885.634 104.373 885.809 104.927 886.157 105.342C886.512 105.751 886.982 105.956 887.569 105.956ZM888.498 98.2363C889.279 98.2363 889.962 98.3996 890.549 98.7261C891.135 99.047 891.592 99.5008 891.918 100.087C892.245 100.668 892.408 101.349 892.408 102.129C892.408 102.926 892.283 103.662 892.034 104.337C891.785 105.013 891.437 105.602 890.988 106.105C890.54 106.604 890.012 106.991 889.403 107.268C888.794 107.544 888.13 107.683 887.411 107.683C886.631 107.683 885.944 107.522 885.352 107.201C884.766 106.875 884.306 106.418 883.974 105.832C883.642 105.245 883.476 104.564 883.476 103.79C883.476 102.987 883.601 102.248 883.85 101.573C884.099 100.898 884.447 100.312 884.896 99.8135C885.344 99.3099 885.872 98.9225 886.481 98.6514C887.095 98.3747 887.768 98.2363 888.498 98.2363ZM893.729 98.4189H895.805L896.518 105.267H896.66L900.154 98.4189H902.379L897.274 107.5H894.974L893.729 98.4189ZM902.364 107.666C901.976 107.666 901.658 107.539 901.409 107.284C901.16 107.03 901.036 106.731 901.036 106.388C901.036 106.011 901.16 105.696 901.409 105.441C901.658 105.181 901.976 105.051 902.364 105.051C902.757 105.051 903.075 105.179 903.318 105.433C903.567 105.688 903.692 105.986 903.692 106.33C903.692 106.706 903.567 107.024 903.318 107.284C903.075 107.539 902.757 107.666 902.364 107.666ZM911.672 98.8838C911.739 98.1699 911.971 97.5391 912.37 96.9912C912.774 96.4378 913.299 96.0062 913.947 95.6963C914.594 95.3809 915.319 95.2231 916.122 95.2231C916.858 95.2231 917.516 95.3615 918.097 95.6382C918.684 95.9149 919.146 96.2939 919.483 96.7754C919.821 97.2513 919.99 97.7936 919.99 98.4023C919.99 98.7731 919.932 99.1217 919.815 99.4482C919.699 99.7747 919.505 100.112 919.234 100.461C918.969 100.804 918.606 101.189 918.147 101.615C917.688 102.041 917.115 102.536 916.429 103.101L913.474 105.549L913.44 105.699H918.886L918.512 107.5H910.054L910.386 105.898L915.175 101.889C915.723 101.429 916.171 101.042 916.52 100.727C916.869 100.411 917.14 100.137 917.333 99.9048C917.527 99.6668 917.66 99.4482 917.732 99.249C917.809 99.0443 917.848 98.8312 917.848 98.6099C917.848 98.2944 917.765 98.015 917.599 97.7715C917.439 97.528 917.214 97.3371 916.927 97.1987C916.644 97.0604 916.315 96.9912 915.939 96.9912C915.601 96.9912 915.275 97.0604 914.959 97.1987C914.644 97.3315 914.373 97.5363 914.146 97.813C913.919 98.0897 913.764 98.4466 913.681 98.8838C913.349 98.8838 913.014 98.8838 912.677 98.8838C912.339 98.8838 912.004 98.8838 911.672 98.8838ZM920.962 110.671H919.493L921.344 105.657H923.428L920.962 110.671ZM931.201 98.8838C931.267 98.1699 931.499 97.5391 931.898 96.9912C932.302 96.4378 932.828 96.0062 933.475 95.6963C934.123 95.3809 934.847 95.2231 935.65 95.2231C936.386 95.2231 937.044 95.3615 937.625 95.6382C938.212 95.9149 938.674 96.2939 939.012 96.7754C939.349 97.2513 939.518 97.7936 939.518 98.4023C939.518 98.7731 939.46 99.1217 939.344 99.4482C939.227 99.7747 939.034 100.112 938.763 100.461C938.497 100.804 938.135 101.189 937.675 101.615C937.216 102.041 936.643 102.536 935.957 103.101L933.002 105.549L932.969 105.699H938.414L938.04 107.5H929.582L929.914 105.898L934.704 101.889C935.251 101.429 935.7 101.042 936.048 100.727C936.397 100.411 936.668 100.137 936.862 99.9048C937.055 99.6668 937.188 99.4482 937.26 99.249C937.338 99.0443 937.376 98.8312 937.376 98.6099C937.376 98.2944 937.293 98.015 937.127 97.7715C936.967 97.528 936.743 97.3371 936.455 97.1987C936.173 97.0604 935.844 96.9912 935.467 96.9912C935.13 96.9912 934.803 97.0604 934.488 97.1987C934.172 97.3315 933.901 97.5363 933.674 97.813C933.447 98.0897 933.292 98.4466 933.209 98.8838C932.877 98.8838 932.543 98.8838 932.205 98.8838C931.867 98.8838 931.533 98.8838 931.201 98.8838ZM944.633 107.799C943.825 107.799 943.125 107.613 942.533 107.243C941.941 106.872 941.484 106.349 941.163 105.674C940.842 104.999 940.682 104.202 940.682 103.283C940.682 102.127 940.826 101.059 941.113 100.079C941.407 99.0941 941.811 98.2391 942.325 97.5142C942.846 96.7892 943.449 96.2275 944.135 95.8291C944.821 95.4251 945.56 95.2231 946.351 95.2231C947.165 95.2231 947.865 95.4085 948.451 95.7793C949.043 96.1501 949.5 96.6758 949.821 97.3564C950.142 98.0316 950.302 98.8285 950.302 99.7471C950.302 100.909 950.156 101.983 949.862 102.968C949.575 103.947 949.173 104.799 948.659 105.524C948.144 106.244 947.541 106.803 946.849 107.201C946.163 107.6 945.424 107.799 944.633 107.799ZM942.832 103.366C942.832 103.914 942.906 104.387 943.056 104.786C943.205 105.179 943.421 105.48 943.703 105.69C943.985 105.901 944.323 106.006 944.716 106.006C945.175 106.006 945.61 105.84 946.019 105.508C946.434 105.17 946.802 104.708 947.123 104.122C947.444 103.535 947.696 102.86 947.879 102.096C948.061 101.327 948.152 100.516 948.152 99.6641C948.152 99.1107 948.078 98.6375 947.928 98.2446C947.779 97.8517 947.566 97.5501 947.289 97.3398C947.013 97.124 946.678 97.0161 946.285 97.0161C945.82 97.0161 945.38 97.1849 944.965 97.5225C944.555 97.86 944.187 98.3221 943.861 98.9087C943.54 99.4953 943.288 100.17 943.106 100.934C942.923 101.698 942.832 102.508 942.832 103.366ZM952.338 98.8838C952.404 98.1699 952.637 97.5391 953.035 96.9912C953.439 96.4378 953.965 96.0062 954.612 95.6963C955.26 95.3809 955.985 95.2231 956.787 95.2231C957.523 95.2231 958.181 95.3615 958.763 95.6382C959.349 95.9149 959.811 96.2939 960.149 96.7754C960.486 97.2513 960.655 97.7936 960.655 98.4023C960.655 98.7731 960.597 99.1217 960.481 99.4482C960.365 99.7747 960.171 100.112 959.9 100.461C959.634 100.804 959.272 101.189 958.812 101.615C958.353 102.041 957.78 102.536 957.094 103.101L954.139 105.549L954.106 105.699H959.551L959.178 107.5H950.719L951.051 105.898L955.841 101.889C956.388 101.429 956.837 101.042 957.185 100.727C957.534 100.411 957.805 100.137 957.999 99.9048C958.193 99.6668 958.325 99.4482 958.397 99.249C958.475 99.0443 958.513 98.8312 958.513 98.6099C958.513 98.2944 958.43 98.015 958.264 97.7715C958.104 97.528 957.88 97.3371 957.592 97.1987C957.31 97.0604 956.981 96.9912 956.604 96.9912C956.267 96.9912 955.94 97.0604 955.625 97.1987C955.309 97.3315 955.038 97.5363 954.811 97.813C954.584 98.0897 954.43 98.4466 954.346 98.8838C954.014 98.8838 953.68 98.8838 953.342 98.8838C953.005 98.8838 952.67 98.8838 952.338 98.8838ZM965.878 107.799C965.076 107.799 964.356 107.649 963.72 107.351C963.089 107.046 962.588 106.637 962.217 106.122C961.852 105.602 961.669 105.015 961.669 104.362C961.669 104.324 961.669 104.299 961.669 104.288C961.675 104.271 961.678 104.249 961.678 104.221C961.683 104.194 961.686 104.146 961.686 104.08H963.703C963.703 104.086 963.703 104.091 963.703 104.097C963.703 104.102 963.703 104.108 963.703 104.113C963.709 104.49 963.808 104.819 964.002 105.101C964.196 105.383 964.461 105.605 964.799 105.765C965.142 105.926 965.532 106.006 965.969 106.006C966.484 106.006 966.935 105.89 967.322 105.657C967.715 105.425 968.02 105.104 968.235 104.694C968.457 104.285 968.567 103.82 968.567 103.3C968.567 102.863 968.473 102.489 968.285 102.179C968.103 101.869 967.848 101.631 967.521 101.465C967.201 101.294 966.833 101.208 966.417 101.208C966.13 101.208 965.853 101.25 965.587 101.333C965.322 101.41 965.078 101.521 964.857 101.665C964.636 101.803 964.445 101.969 964.284 102.163C963.952 102.163 963.617 102.163 963.28 102.163C962.948 102.163 962.613 102.163 962.275 102.163L964.292 95.522H971.448L971.058 97.3315H965.646L964.658 100.486L964.799 100.494C965.103 100.195 965.455 99.974 965.853 99.8301C966.257 99.6807 966.689 99.606 967.148 99.606C967.795 99.606 968.382 99.7554 968.908 100.054C969.439 100.353 969.86 100.763 970.169 101.283C970.485 101.797 970.643 102.389 970.643 103.059C970.643 103.972 970.446 104.786 970.053 105.5C969.66 106.213 969.104 106.775 968.385 107.185C967.671 107.594 966.835 107.799 965.878 107.799Z" fill="#F5E9DF"/>
<defs>
<filter id="filter0_d_199_14" x="0.540794" y="63.7727" width="1045.46" height="78.7815" filterUnits="userSpaceOnUse" color-interpolation-filters="sRGB">
<feFlood flood-opacity="0" result="BackgroundImageFix"/>
<feColorMatrix in="SourceAlpha" type="matrix" values="0 0 0 0 0 0 0 0 0 0 0 0 0 0 0 0 0 0 127 0" result="hardAlpha"/>
<feOffset dx="10" dy="7"/>
<feGaussianBlur stdDeviation="2"/>
<feComposite in2="hardAlpha" operator="out"/>
<feColorMatrix type="matrix" values="0 0 0 0 0 0 0 0 0 0 0 0 0 0 0 0 0 0 0.25 0"/>
<feBlend mode="normal" in2="BackgroundImageFix" result="effect1_dropShadow_199_14"/>
<feBlend mode="normal" in="SourceGraphic" in2="effect1_dropShadow_199_14" result="shape"/>
</filter>
<filter id="filter1_d_199_14" x="51.2" y="26.8" width="719.577" height="84.4" filterUnits="userSpaceOnUse" color-interpolation-filters="sRGB">
<feFlood flood-opacity="0" result="BackgroundImageFix"/>
<feColorMatrix in="SourceAlpha" type="matrix" values="0 0 0 0 0 0 0 0 0 0 0 0 0 0 0 0 0 0 127 0" result="hardAlpha"/>
<feOffset dx="8" dy="6"/>
<feGaussianBlur stdDeviation="2"/>
<feComposite in2="hardAlpha" operator="out"/>
<feColorMatrix type="matrix" values="0 0 0 0 0 0 0 0 0 0 0 0 0 0 0 0 0 0 0.25 0"/>
<feBlend mode="normal" in2="BackgroundImageFix" result="effect1_dropShadow_199_14"/>
<feBlend mode="normal" in="SourceGraphic" in2="effect1_dropShadow_199_14" result="shape"/>
</filter>
</defs>
</svg>
