<svg width="1046" height="150" viewBox="0 0 1046 150" fill="none" xmlns="http://www.w3.org/2000/svg">
<g filter="url(#filter0_d_199_14)">
<path d="M34.6972 78.5286C35.5703 75.3115 36.4434 72.0944 37.3165 68.8773C30.806 67.1757 24.2955 65.4742 17.785 63.7727C16.9724 67.0056 16.1598 70.2385 15.3471 73.4714C11.4835 88.8423 7.61989 104.213 3.75627 119.584L0.540793 131.439L13 131.554C14.9274 131.536 16.8548 131.518 18.7822 131.5C338.746 128.5 658.709 125.5 978.673 122.5C996.449 122.333 1014.22 122.167 1032 122C1014.22 121.833 996.449 121.667 978.673 121.5C658.709 118.5 338.746 115.5 18.7822 112.5C16.8548 112.482 14.9274 112.464 13 112.446L22.2437 124.416C26.3949 109.12 30.5461 93.8243 34.6972 78.5286Z" fill="#F5E9DF"/>
</g>
<g filter="url(#filter1_d_199_14)">
<path d="M51.2 64.3C51.2 56.9 52.7667 50.4 55.9 44.8C59.1 39.1333 63.7667 34.7333 69.9 31.6C76.0333 28.4 83.5667 26.8 92.5 26.8C96.1667 26.8 99.4667 27.0667 102.4 27.6C105.333 28.1333 107.567 28.7333 109.1 29.4V44.7H108C106.533 43.9 104.467 43.2333 101.8 42.7C99.1333 42.1 96.2667 41.8 93.2 41.8C85.2 41.8 79.2 43.7333 75.2 47.6C71.2667 51.4667 69.3 57.1333 69.3 64.6C69.3 69.2 70.1333 73.1667 71.8 76.5C73.4667 79.7667 75.8333 82.2667 78.9 84C81.9667 85.7333 85.6 86.6 89.8 86.6C91.8 86.6 93.5 86.4 94.9 86C96.3 85.6 97.5333 84.9 98.6 83.9L95.3 93.2V63.2H111.6V97.2C109 98.4 105.8 99.3667 102 100.1C98.2667 100.833 94.1333 101.2 89.6 101.2C81.0667 101.2 73.9667 99.6667 68.3 96.6C62.6333 93.5333 58.3667 89.2333 55.5 83.7C52.6333 78.1 51.2 71.6333 51.2 64.3ZM135.684 82.9V68.5H152.584C155.918 68.5 158.618 67.8 160.684 66.4C162.818 64.9333 164.384 63.0667 165.384 60.8C166.384 58.5333 166.884 56.1 166.884 53.5C166.884 49.8333 165.818 47.1333 163.684 45.4C161.618 43.6667 158.851 42.8 155.384 42.8H135.684V28H155.484C162.018 28 167.418 29.0333 171.684 31.1C176.018 33.1 179.251 35.9667 181.384 39.7C183.584 43.4333 184.684 47.8333 184.684 52.9C184.684 57.5667 183.818 61.7667 182.084 65.5C180.351 69.1667 177.984 72.3 174.984 74.9C172.051 77.5 168.684 79.5 164.884 80.9C161.084 82.2333 157.118 82.9 152.984 82.9H135.684ZM126.084 100V28H143.884V100H126.084ZM167.284 100L152.884 79.2L169.484 76.4L186.884 99V100H167.284ZM197.959 100V28H215.759V100H197.959ZM207.559 100V84.6H246.759V100H207.559ZM207.559 71.2V56.6H240.759V71.2H207.559ZM207.559 43.4V28H245.859V43.4H207.559ZM259.288 100V28H277.088V100H259.288ZM268.888 100V84.6H308.088V100H268.888ZM268.888 71.2V56.6H302.088V71.2H268.888ZM268.888 43.4V28H307.188V43.4H268.888ZM320.616 100V28H334.816L370.516 64.1V87.4L333.316 49.8L338.416 47.7V100H320.616ZM364.616 100V28H382.316V100H364.616ZM419.202 81.6H420.202C421.868 82.4667 423.868 83.3 426.202 84.1C428.535 84.9 431.068 85.5667 433.802 86.1C436.602 86.5667 439.402 86.8 442.202 86.8C445.135 86.8 447.568 86.6 449.502 86.2C451.502 85.8 453.002 85.1667 454.002 84.3C455.068 83.3667 455.602 82.1333 455.602 80.6C455.602 78.6667 454.935 77.2333 453.602 76.3C452.335 75.3667 450.035 74.6333 446.702 74.1L440.102 73.1C435.168 72.3667 430.968 71.1 427.502 69.3C424.102 67.5 421.535 65.1333 419.802 62.2C418.068 59.2 417.202 55.6 417.202 51.4C417.202 46.2667 418.402 41.8667 420.802 38.2C423.268 34.5333 427.002 31.7333 432.002 29.8C437.002 27.8 443.402 26.8 451.202 26.8C454.668 26.8 458.002 27.1 461.202 27.7C464.402 28.2333 467.068 28.9667 469.202 29.9V45H468.102C466.102 44.0667 463.535 43.2 460.402 42.4C457.268 41.6 453.768 41.2 449.902 41.2C446.568 41.2 443.735 41.5333 441.402 42.2C439.135 42.8667 437.402 43.9 436.202 45.3C435.002 46.6333 434.402 48.3333 434.402 50.4C434.402 53.0667 435.268 54.9667 437.002 56.1C438.735 57.2333 441.535 58.1333 445.402 58.8L451.702 59.8C455.635 60.4 459.202 61.4667 462.402 63C465.668 64.5333 468.235 66.6667 470.102 69.4C472.035 72.1333 473.002 75.7333 473.002 80.2C473.002 84 472.202 87.2667 470.602 90C469.002 92.6667 466.768 94.8333 463.902 96.5C461.102 98.1 457.835 99.2667 454.102 100C450.435 100.8 446.468 101.2 442.202 101.2C439.202 101.2 436.235 101 433.302 100.6C430.435 100.267 427.768 99.8 425.302 99.2C422.835 98.6 420.802 97.9667 419.202 97.3V81.6ZM478.292 28H537.892V43.4H516.892V100H499.192V43.4H478.292V28ZM538.486 100L546.486 52.8C547.353 47.6 548.753 43.3333 550.686 40C552.619 36.6667 555.019 34.0667 557.886 32.2C560.819 30.3333 564.253 29.0333 568.186 28.3C572.119 27.5667 576.519 27.2 581.386 27.2C584.186 27.2 587.219 27.3667 590.486 27.7C593.753 28.0333 596.719 28.5 599.386 29.1L599.586 30.3C599.319 31.5 599.119 33.1 598.986 35.1C598.919 37.1 598.853 39.1333 598.786 41.2C598.786 43.2667 598.786 44.9667 598.786 46.3V100H581.086V48.1C581.086 46.1667 581.153 44.4 581.286 42.8C581.486 41.1333 581.719 39.6333 581.986 38.3L584.286 42.6C583.553 42.4 582.553 42.2667 581.286 42.2C580.086 42.0667 578.953 42 577.886 42C574.753 42 572.253 42.4333 570.386 43.3C568.519 44.1 567.086 45.3333 566.086 47C565.153 48.6667 564.453 50.8 563.986 53.4L556.286 100H538.486ZM551.286 81.6V67.4H589.286V81.6H551.286ZM614.073 100V28H629.073L653.973 68.9L646.673 69L671.173 28H686.173V100H668.473V53.5L672.073 54.5L654.373 83.9H645.873L628.173 54.9L631.873 53.9V100H614.073ZM710.977 81.6V67.3H727.377C730.711 67.3 733.377 66.6333 735.377 65.3C737.444 63.9667 738.911 62.2 739.777 60C740.711 57.8 741.177 55.3667 741.177 52.7C741.177 49.2333 740.177 46.7333 738.177 45.2C736.244 43.6 733.711 42.8 730.577 42.8H710.977V28H730.377C739.711 28 746.777 30.1333 751.577 34.4C756.377 38.6667 758.777 44.6 758.777 52.2C758.777 56.2667 758.111 60.1 756.777 63.7C755.511 67.3 753.577 70.4333 750.977 73.1C748.377 75.7667 745.144 77.8667 741.277 79.4C737.477 80.8667 733.044 81.6 727.977 81.6H710.977ZM701.377 100V28H719.177V100H701.377Z" fill="#F5E9DF"/>
</g>
<path d="M762.783 105.624L762.401 107.5H754.756L757.305 95.522H759.463L757.305 105.624H762.783ZM767.359 106.047C767.74 106.047 768.095 105.973 768.421 105.823C768.753 105.668 769.03 105.461 769.251 105.201C769.478 104.935 769.63 104.636 769.708 104.304L769.899 103.424L767.832 103.516C767.212 103.543 766.728 103.679 766.379 103.922C766.036 104.16 765.864 104.479 765.864 104.877C765.864 105.22 766.003 105.502 766.279 105.724C766.562 105.939 766.921 106.047 767.359 106.047ZM766.545 107.649C766.03 107.649 765.566 107.542 765.151 107.326C764.741 107.104 764.417 106.806 764.179 106.429C763.941 106.053 763.822 105.63 763.822 105.159C763.822 104.246 764.171 103.524 764.868 102.993C765.566 102.461 766.548 102.174 767.815 102.129L770.189 102.038L770.314 101.457C770.33 101.368 770.341 101.299 770.347 101.25C770.358 101.194 770.363 101.142 770.363 101.092C770.363 100.727 770.214 100.439 769.915 100.229C769.622 100.018 769.215 99.9131 768.695 99.9131C768.413 99.9131 768.155 99.9491 767.923 100.021C767.691 100.093 767.494 100.198 767.334 100.336C767.173 100.469 767.051 100.638 766.968 100.843H764.96C765.092 100.306 765.339 99.8439 765.698 99.4565C766.058 99.0636 766.509 98.762 767.051 98.5518C767.594 98.3415 768.194 98.2363 768.853 98.2363C769.567 98.2363 770.189 98.347 770.72 98.5684C771.252 98.7842 771.664 99.0885 771.957 99.4814C772.256 99.8743 772.405 100.334 772.405 100.859C772.405 100.981 772.397 101.106 772.381 101.233C772.369 101.36 772.353 101.482 772.331 101.598L771.077 107.5H769.077L769.326 106.354H769.176C768.994 106.62 768.764 106.85 768.487 107.043C768.211 107.237 767.906 107.387 767.574 107.492C767.248 107.597 766.905 107.649 766.545 107.649ZM774.175 101.092C774.175 100.516 774.33 100.015 774.64 99.5894C774.95 99.1632 775.379 98.8312 775.927 98.5933C776.474 98.3553 777.103 98.2363 777.811 98.2363C778.514 98.2363 779.125 98.347 779.645 98.5684C780.171 98.7842 780.589 99.0885 780.899 99.4814C781.209 99.8743 781.389 100.334 781.438 100.859H779.513C779.463 100.638 779.36 100.45 779.205 100.295C779.056 100.14 778.86 100.021 778.616 99.938C778.378 99.8494 778.104 99.8052 777.794 99.8052C777.484 99.8052 777.208 99.8522 776.964 99.9463C776.721 100.035 776.527 100.162 776.383 100.328C776.245 100.489 776.176 100.674 776.176 100.884C776.176 101.111 776.267 101.308 776.45 101.474C776.638 101.64 776.914 101.784 777.28 101.905L778.666 102.378C779.413 102.627 779.952 102.943 780.285 103.325C780.622 103.707 780.791 104.194 780.791 104.786C780.791 105.356 780.628 105.859 780.301 106.296C779.975 106.734 779.521 107.074 778.94 107.317C778.359 107.561 777.692 107.683 776.939 107.683C776.203 107.683 775.553 107.569 774.989 107.342C774.424 107.11 773.976 106.789 773.644 106.379C773.317 105.97 773.138 105.494 773.104 104.952H775.121C775.204 105.289 775.409 105.569 775.736 105.79C776.062 106.011 776.472 106.122 776.964 106.122C777.313 106.122 777.617 106.075 777.877 105.981C778.143 105.887 778.348 105.757 778.492 105.591C778.641 105.419 778.716 105.223 778.716 105.001C778.716 104.786 778.641 104.595 778.492 104.429C778.348 104.263 778.088 104.119 777.711 103.997L776.3 103.524C775.586 103.275 775.052 102.957 774.698 102.569C774.349 102.182 774.175 101.689 774.175 101.092ZM785.375 107.542C784.655 107.542 784.069 107.378 783.615 107.052C783.167 106.725 782.942 106.258 782.942 105.649C782.942 105.533 782.951 105.408 782.967 105.275C782.984 105.137 783.006 104.999 783.034 104.86L784.046 100.121H782.569L782.909 98.4771H784.395L784.868 96.1943H786.943L786.454 98.4771H788.438L788.081 100.121H786.122L785.2 104.404C785.173 104.52 785.15 104.633 785.134 104.744C785.123 104.849 785.117 104.946 785.117 105.035C785.117 105.333 785.209 105.552 785.391 105.69C785.574 105.829 785.834 105.898 786.171 105.898C786.266 105.898 786.351 105.895 786.429 105.89C786.506 105.884 786.581 105.879 786.653 105.873C786.725 105.868 786.794 105.862 786.86 105.856L786.528 107.45C786.401 107.478 786.235 107.5 786.03 107.517C785.826 107.533 785.607 107.542 785.375 107.542ZM797.854 107.799C796.908 107.799 796.1 107.633 795.43 107.301C794.76 106.963 794.249 106.507 793.894 105.931C793.54 105.35 793.36 104.694 793.355 103.964C793.349 103.792 793.355 103.618 793.371 103.441C793.394 103.264 793.424 103.087 793.463 102.91L795.015 95.522H797.182L795.638 102.827C795.604 102.993 795.579 103.156 795.563 103.316C795.546 103.477 795.538 103.629 795.538 103.773C795.555 104.199 795.66 104.57 795.853 104.885C796.053 105.195 796.335 105.436 796.7 105.607C797.071 105.779 797.522 105.865 798.053 105.865C798.562 105.865 799.024 105.765 799.439 105.566C799.854 105.367 800.203 105.076 800.485 104.694C800.773 104.307 800.975 103.845 801.091 103.308L802.743 95.522H804.91L803.158 103.773C802.981 104.614 802.66 105.336 802.195 105.939C801.73 106.537 801.133 106.996 800.402 107.317C799.677 107.638 798.828 107.799 797.854 107.799ZM809.51 105.881C809.908 105.881 810.276 105.787 810.614 105.599C810.951 105.405 811.247 105.137 811.502 104.794C811.757 104.451 811.956 104.052 812.1 103.599C812.244 103.139 812.316 102.639 812.316 102.096C812.316 101.421 812.144 100.904 811.801 100.544C811.463 100.184 811.01 100.004 810.44 100.004C810.041 100.004 809.668 100.101 809.319 100.295C808.976 100.489 808.671 100.757 808.406 101.1C808.146 101.438 807.941 101.833 807.792 102.287C807.648 102.735 807.576 103.217 807.576 103.731C807.576 104.407 807.753 104.935 808.107 105.317C808.461 105.693 808.929 105.881 809.51 105.881ZM806.073 110.513H804.015L806.588 98.4189H808.58L808.315 99.6724H808.464C808.785 99.2463 809.186 98.9059 809.668 98.6514C810.155 98.3968 810.697 98.2695 811.295 98.2695C811.903 98.2695 812.443 98.4162 812.913 98.7095C813.389 98.9972 813.763 99.404 814.034 99.9297C814.31 100.45 814.449 101.059 814.449 101.756C814.449 102.597 814.333 103.377 814.1 104.097C813.868 104.811 813.541 105.433 813.121 105.964C812.706 106.496 812.219 106.911 811.66 107.209C811.106 107.503 810.506 107.649 809.858 107.649C809.421 107.649 809.023 107.575 808.663 107.425C808.303 107.27 807.999 107.057 807.75 106.786C807.501 106.509 807.327 106.197 807.227 105.848H807.086L806.073 110.513ZM818.734 107.649C818.13 107.649 817.585 107.506 817.098 107.218C816.617 106.924 816.235 106.509 815.953 105.973C815.671 105.436 815.53 104.797 815.53 104.055C815.53 103.22 815.646 102.45 815.878 101.748C816.116 101.039 816.445 100.428 816.866 99.9131C817.287 99.3929 817.776 98.9889 818.335 98.7012C818.9 98.4134 819.508 98.2695 820.161 98.2695C820.604 98.2695 821.005 98.3442 821.365 98.4937C821.725 98.6431 822.026 98.8506 822.27 99.1162C822.513 99.3763 822.685 99.6751 822.784 100.013H822.934L824.021 94.9077H826.088L823.415 107.5H821.423L821.689 106.247H821.539C821.224 106.673 820.825 107.013 820.344 107.268C819.863 107.522 819.326 107.649 818.734 107.649ZM819.58 105.915C819.984 105.915 820.358 105.818 820.701 105.624C821.044 105.43 821.346 105.162 821.606 104.819C821.866 104.476 822.068 104.08 822.212 103.632C822.356 103.184 822.428 102.699 822.428 102.179C822.428 101.51 822.25 100.987 821.896 100.61C821.542 100.229 821.074 100.038 820.493 100.038C820.101 100.038 819.733 100.129 819.389 100.312C819.046 100.494 818.745 100.751 818.485 101.083C818.23 101.41 818.031 101.797 817.887 102.246C817.743 102.694 817.671 103.184 817.671 103.715C817.671 104.384 817.851 104.918 818.211 105.317C818.57 105.715 819.027 105.915 819.58 105.915ZM829.161 106.047C829.543 106.047 829.897 105.973 830.224 105.823C830.556 105.668 830.832 105.461 831.054 105.201C831.281 104.935 831.433 104.636 831.51 104.304L831.701 103.424L829.634 103.516C829.014 103.543 828.53 103.679 828.182 103.922C827.838 104.16 827.667 104.479 827.667 104.877C827.667 105.22 827.805 105.502 828.082 105.724C828.364 105.939 828.724 106.047 829.161 106.047ZM828.348 107.649C827.833 107.649 827.368 107.542 826.953 107.326C826.544 107.104 826.22 106.806 825.982 106.429C825.744 106.053 825.625 105.63 825.625 105.159C825.625 104.246 825.974 103.524 826.671 102.993C827.368 102.461 828.35 102.174 829.618 102.129L831.992 102.038L832.116 101.457C832.133 101.368 832.144 101.299 832.149 101.25C832.16 101.194 832.166 101.142 832.166 101.092C832.166 100.727 832.017 100.439 831.718 100.229C831.424 100.018 831.018 99.9131 830.497 99.9131C830.215 99.9131 829.958 99.9491 829.726 100.021C829.493 100.093 829.297 100.198 829.136 100.336C828.976 100.469 828.854 100.638 828.771 100.843H826.762C826.895 100.306 827.141 99.8439 827.501 99.4565C827.861 99.0636 828.312 98.762 828.854 98.5518C829.396 98.3415 829.997 98.2363 830.655 98.2363C831.369 98.2363 831.992 98.347 832.523 98.5684C833.054 98.7842 833.466 99.0885 833.76 99.4814C834.059 99.8743 834.208 100.334 834.208 100.859C834.208 100.981 834.2 101.106 834.183 101.233C834.172 101.36 834.155 101.482 834.133 101.598L832.88 107.5H830.879L831.128 106.354H830.979C830.796 106.62 830.567 106.85 830.29 107.043C830.013 107.237 829.709 107.387 829.377 107.492C829.05 107.597 828.707 107.649 828.348 107.649ZM838.41 107.542C837.69 107.542 837.104 107.378 836.65 107.052C836.202 106.725 835.978 106.258 835.978 105.649C835.978 105.533 835.986 105.408 836.003 105.275C836.019 105.137 836.041 104.999 836.069 104.86L837.082 100.121H835.604L835.944 98.4771H837.43L837.903 96.1943H839.979L839.489 98.4771H841.473L841.116 100.121H839.157L838.235 104.404C838.208 104.52 838.186 104.633 838.169 104.744C838.158 104.849 838.152 104.946 838.152 105.035C838.152 105.333 838.244 105.552 838.426 105.69C838.609 105.829 838.869 105.898 839.207 105.898C839.301 105.898 839.387 105.895 839.464 105.89C839.541 105.884 839.616 105.879 839.688 105.873C839.76 105.868 839.829 105.862 839.896 105.856L839.564 107.45C839.436 107.478 839.27 107.5 839.066 107.517C838.861 107.533 838.642 107.542 838.41 107.542ZM843.782 102.038H848.082C848.087 102.01 848.09 101.963 848.09 101.897C848.096 101.831 848.098 101.767 848.098 101.706C848.098 101.368 848.026 101.061 847.883 100.785C847.744 100.508 847.54 100.289 847.268 100.129C847.003 99.9629 846.673 99.8799 846.281 99.8799C845.882 99.8799 845.514 99.9712 845.177 100.154C844.839 100.331 844.551 100.583 844.313 100.909C844.075 101.23 843.898 101.606 843.782 102.038ZM845.45 107.683C844.703 107.683 844.037 107.533 843.45 107.234C842.863 106.93 842.399 106.49 842.055 105.915C841.718 105.333 841.549 104.636 841.549 103.823C841.549 102.987 841.665 102.229 841.898 101.548C842.13 100.862 842.462 100.273 842.894 99.7803C843.325 99.2822 843.837 98.9004 844.429 98.6348C845.027 98.3691 845.68 98.2363 846.388 98.2363C847.08 98.2363 847.703 98.3885 848.256 98.6929C848.815 98.9917 849.261 99.4233 849.593 99.9878C849.925 100.547 850.091 101.216 850.091 101.997C850.091 102.174 850.077 102.409 850.049 102.702C850.021 102.99 849.991 103.233 849.958 103.433H843.55C843.544 103.488 843.539 103.543 843.533 103.599C843.533 103.648 843.533 103.701 843.533 103.756C843.533 104.282 843.63 104.711 843.824 105.043C844.023 105.375 844.277 105.618 844.587 105.773C844.897 105.928 845.226 106.006 845.575 106.006C846.09 106.006 846.507 105.915 846.828 105.732C847.149 105.549 847.387 105.303 847.542 104.993H849.576C849.443 105.519 849.189 105.984 848.812 106.388C848.442 106.792 847.971 107.11 847.401 107.342C846.831 107.569 846.181 107.683 845.45 107.683ZM854.434 107.649C853.83 107.649 853.285 107.506 852.798 107.218C852.317 106.924 851.935 106.509 851.653 105.973C851.371 105.436 851.229 104.797 851.229 104.055C851.229 103.22 851.346 102.45 851.578 101.748C851.816 101.039 852.145 100.428 852.566 99.9131C852.986 99.3929 853.476 98.9889 854.035 98.7012C854.6 98.4134 855.208 98.2695 855.861 98.2695C856.304 98.2695 856.705 98.3442 857.065 98.4937C857.425 98.6431 857.726 98.8506 857.97 99.1162C858.213 99.3763 858.385 99.6751 858.484 100.013H858.634L859.721 94.9077H861.788L859.115 107.5H857.123L857.389 106.247H857.239C856.924 106.673 856.525 107.013 856.044 107.268C855.562 107.522 855.026 107.649 854.434 107.649ZM855.28 105.915C855.684 105.915 856.058 105.818 856.401 105.624C856.744 105.43 857.046 105.162 857.306 104.819C857.566 104.476 857.768 104.08 857.912 103.632C858.055 103.184 858.127 102.699 858.127 102.179C858.127 101.51 857.95 100.987 857.596 100.61C857.242 100.229 856.774 100.038 856.193 100.038C855.8 100.038 855.432 100.129 855.089 100.312C854.746 100.494 854.445 100.751 854.185 101.083C853.93 101.41 853.731 101.797 853.587 102.246C853.443 102.694 853.371 103.184 853.371 103.715C853.371 104.384 853.551 104.918 853.911 105.317C854.27 105.715 854.727 105.915 855.28 105.915ZM862.877 107.666C862.49 107.666 862.172 107.539 861.923 107.284C861.673 107.03 861.549 106.731 861.549 106.388C861.549 106.011 861.673 105.696 861.923 105.441C862.172 105.181 862.49 105.051 862.877 105.051C863.27 105.051 863.588 105.179 863.832 105.433C864.081 105.688 864.205 105.986 864.205 106.33C864.205 106.706 864.081 107.024 863.832 107.284C863.588 107.539 863.27 107.666 862.877 107.666ZM864.172 101.615C863.785 101.615 863.466 101.487 863.217 101.233C862.968 100.978 862.844 100.68 862.844 100.336C862.844 99.9601 862.968 99.6447 863.217 99.3901C863.466 99.13 863.785 99 864.172 99C864.565 99 864.883 99.1273 865.127 99.3818C865.376 99.6309 865.5 99.9297 865.5 100.278C865.5 100.649 865.376 100.965 865.127 101.225C864.883 101.485 864.565 101.615 864.172 101.615ZM877.822 97.1572C877.224 97.1572 876.671 97.2956 876.162 97.5723C875.653 97.849 875.204 98.2336 874.817 98.7261C874.435 99.2186 874.136 99.7941 873.92 100.453C873.71 101.111 873.605 101.825 873.605 102.594C873.605 103.247 873.727 103.82 873.97 104.312C874.219 104.805 874.565 105.19 875.008 105.466C875.456 105.737 875.973 105.873 876.56 105.873C877.158 105.873 877.711 105.737 878.22 105.466C878.729 105.195 879.172 104.813 879.548 104.321C879.93 103.828 880.226 103.253 880.437 102.594C880.647 101.936 880.752 101.216 880.752 100.436C880.752 99.7775 880.63 99.2048 880.387 98.7178C880.143 98.2253 879.8 97.8434 879.357 97.5723C878.915 97.2956 878.403 97.1572 877.822 97.1572ZM876.46 107.799C875.453 107.799 874.568 107.58 873.804 107.143C873.046 106.706 872.454 106.108 872.028 105.35C871.607 104.586 871.397 103.723 871.397 102.76C871.397 101.659 871.56 100.652 871.887 99.7388C872.213 98.8201 872.67 98.0233 873.256 97.3481C873.848 96.673 874.54 96.1501 875.332 95.7793C876.128 95.4085 876.992 95.2231 877.921 95.2231C878.94 95.2231 879.825 95.4445 880.578 95.8872C881.33 96.3244 881.917 96.922 882.337 97.6802C882.758 98.4383 882.968 99.2988 882.968 100.262C882.968 101.363 882.805 102.376 882.479 103.3C882.152 104.218 881.695 105.015 881.109 105.69C880.522 106.36 879.833 106.88 879.042 107.251C878.251 107.616 877.39 107.799 876.46 107.799ZM888.822 98.2363C889.514 98.2363 890.12 98.3664 890.64 98.6265C891.166 98.8866 891.586 99.2297 891.902 99.6558C892.217 100.082 892.405 100.547 892.466 101.05C892.477 101.111 892.483 101.172 892.483 101.233C892.488 101.294 892.491 101.357 892.491 101.424H890.507C890.474 100.981 890.286 100.63 889.943 100.37C889.599 100.104 889.179 99.9712 888.681 99.9712C888.282 99.9712 887.917 100.065 887.585 100.253C887.259 100.436 886.974 100.696 886.73 101.034C886.487 101.366 886.299 101.759 886.166 102.212C886.038 102.661 885.975 103.145 885.975 103.665C885.975 104.158 886.055 104.573 886.216 104.91C886.382 105.248 886.608 105.505 886.896 105.682C887.184 105.854 887.513 105.939 887.884 105.939C888.377 105.939 888.797 105.826 889.146 105.599C889.5 105.367 889.752 105.032 889.901 104.595H891.918C891.807 105.181 891.564 105.71 891.188 106.18C890.817 106.645 890.338 107.013 889.752 107.284C889.165 107.55 888.498 107.683 887.751 107.683C886.965 107.683 886.285 107.525 885.709 107.209C885.134 106.889 884.685 106.443 884.364 105.873C884.049 105.298 883.891 104.622 883.891 103.848C883.891 102.774 884.099 101.817 884.514 100.976C884.929 100.129 885.507 99.4621 886.249 98.9751C886.996 98.4826 887.854 98.2363 888.822 98.2363ZM896.444 107.542C895.724 107.542 895.138 107.378 894.684 107.052C894.236 106.725 894.012 106.258 894.012 105.649C894.012 105.533 894.02 105.408 894.036 105.275C894.053 105.137 894.075 104.999 894.103 104.86L895.116 100.121H893.638L893.978 98.4771H895.464L895.937 96.1943H898.013L897.523 98.4771H899.507L899.15 100.121H897.191L896.269 104.404C896.242 104.52 896.22 104.633 896.203 104.744C896.192 104.849 896.186 104.946 896.186 105.035C896.186 105.333 896.278 105.552 896.46 105.69C896.643 105.829 896.903 105.898 897.241 105.898C897.335 105.898 897.42 105.895 897.498 105.89C897.575 105.884 897.65 105.879 897.722 105.873C897.794 105.868 897.863 105.862 897.93 105.856L897.598 107.45C897.47 107.478 897.304 107.5 897.099 107.517C896.895 107.533 896.676 107.542 896.444 107.542ZM900.82 107.666C900.433 107.666 900.114 107.539 899.865 107.284C899.616 107.03 899.492 106.731 899.492 106.388C899.492 106.011 899.616 105.696 899.865 105.441C900.114 105.181 900.433 105.051 900.82 105.051C901.213 105.051 901.531 105.179 901.774 105.433C902.023 105.688 902.148 105.986 902.148 106.33C902.148 106.706 902.023 107.024 901.774 107.284C901.531 107.539 901.213 107.666 900.82 107.666ZM910.128 98.8838C910.195 98.1699 910.427 97.5391 910.826 96.9912C911.23 96.4378 911.755 96.0062 912.403 95.6963C913.05 95.3809 913.775 95.2231 914.578 95.2231C915.314 95.2231 915.972 95.3615 916.553 95.6382C917.14 95.9149 917.602 96.2939 917.939 96.7754C918.277 97.2513 918.446 97.7936 918.446 98.4023C918.446 98.7731 918.388 99.1217 918.271 99.4482C918.155 99.7747 917.962 100.112 917.69 100.461C917.425 100.804 917.062 101.189 916.603 101.615C916.144 102.041 915.571 102.536 914.885 103.101L911.93 105.549L911.896 105.699H917.342L916.968 107.5H908.51L908.842 105.898L913.631 101.889C914.179 101.429 914.627 101.042 914.976 100.727C915.325 100.411 915.596 100.137 915.789 99.9048C915.983 99.6668 916.116 99.4482 916.188 99.249C916.265 99.0443 916.304 98.8312 916.304 98.6099C916.304 98.2944 916.221 98.015 916.055 97.7715C915.895 97.528 915.67 97.3371 915.383 97.1987C915.101 97.0604 914.771 96.9912 914.395 96.9912C914.057 96.9912 913.731 97.0604 913.415 97.1987C913.1 97.3315 912.829 97.5363 912.602 97.813C912.375 98.0897 912.22 98.4466 912.137 98.8838C911.805 98.8838 911.47 98.8838 911.133 98.8838C910.795 98.8838 910.46 98.8838 910.128 98.8838ZM924.366 101.756C924.742 101.756 925.091 101.689 925.412 101.557C925.738 101.418 926.023 101.23 926.267 100.992C926.516 100.749 926.707 100.466 926.839 100.146C926.978 99.8245 927.047 99.4787 927.047 99.1079C927.047 98.6929 926.956 98.3304 926.773 98.0205C926.59 97.7051 926.333 97.4616 926.001 97.29C925.675 97.113 925.29 97.0244 924.847 97.0244C924.366 97.0244 923.926 97.1434 923.527 97.3813C923.135 97.6193 922.822 97.9403 922.589 98.3442C922.363 98.7482 922.249 99.2048 922.249 99.7139C922.249 100.107 922.338 100.458 922.515 100.768C922.697 101.078 922.949 101.321 923.27 101.499C923.591 101.67 923.956 101.756 924.366 101.756ZM920.116 99.9048C920.116 99.0138 920.326 98.217 920.747 97.5142C921.167 96.8058 921.74 96.2469 922.465 95.8374C923.19 95.4279 924.006 95.2231 924.914 95.2231C925.794 95.2231 926.552 95.4113 927.188 95.7876C927.83 96.1584 928.323 96.6924 928.666 97.3896C929.009 98.0814 929.18 98.9115 929.18 99.8799C929.18 100.5 929.125 101.125 929.014 101.756C928.909 102.387 928.746 102.998 928.525 103.59C928.309 104.177 928.038 104.725 927.711 105.234C927.39 105.743 927.014 106.191 926.582 106.579C926.15 106.96 925.666 107.259 925.129 107.475C924.593 107.691 924.001 107.799 923.353 107.799C922.601 107.799 921.923 107.655 921.319 107.367C920.722 107.074 920.243 106.673 919.883 106.164C919.524 105.649 919.327 105.065 919.294 104.412H921.419C921.463 104.899 921.674 105.286 922.05 105.574C922.426 105.862 922.908 106.006 923.494 106.006C924.059 106.006 924.571 105.843 925.03 105.516C925.489 105.184 925.882 104.714 926.209 104.105C926.535 103.491 926.779 102.752 926.939 101.889L926.798 101.88C926.554 102.207 926.272 102.484 925.951 102.71C925.636 102.937 925.29 103.112 924.914 103.233C924.543 103.35 924.15 103.408 923.735 103.408C923.032 103.408 922.41 103.258 921.867 102.959C921.325 102.655 920.896 102.24 920.581 101.714C920.271 101.189 920.116 100.585 920.116 99.9048ZM929.497 110.671H928.028L929.879 105.657H931.963L929.497 110.671ZM939.735 98.8838C939.802 98.1699 940.034 97.5391 940.433 96.9912C940.837 96.4378 941.362 96.0062 942.01 95.6963C942.657 95.3809 943.382 95.2231 944.185 95.2231C944.921 95.2231 945.579 95.3615 946.16 95.6382C946.747 95.9149 947.209 96.2939 947.547 96.7754C947.884 97.2513 948.053 97.7936 948.053 98.4023C948.053 98.7731 947.995 99.1217 947.879 99.4482C947.762 99.7747 947.569 100.112 947.298 100.461C947.032 100.804 946.669 101.189 946.21 101.615C945.751 102.041 945.178 102.536 944.492 103.101L941.537 105.549L941.504 105.699H946.949L946.575 107.5H938.117L938.449 105.898L943.238 101.889C943.786 101.429 944.235 101.042 944.583 100.727C944.932 100.411 945.203 100.137 945.397 99.9048C945.59 99.6668 945.723 99.4482 945.795 99.249C945.873 99.0443 945.911 98.8312 945.911 98.6099C945.911 98.2944 945.828 98.015 945.662 97.7715C945.502 97.528 945.278 97.3371 944.99 97.1987C944.708 97.0604 944.378 96.9912 944.002 96.9912C943.665 96.9912 943.338 97.0604 943.023 97.1987C942.707 97.3315 942.436 97.5363 942.209 97.813C941.982 98.0897 941.827 98.4466 941.744 98.8838C941.412 98.8838 941.077 98.8838 940.74 98.8838C940.402 98.8838 940.068 98.8838 939.735 98.8838ZM953.168 107.799C952.36 107.799 951.66 107.613 951.068 107.243C950.476 106.872 950.019 106.349 949.698 105.674C949.377 104.999 949.217 104.202 949.217 103.283C949.217 102.127 949.36 101.059 949.648 100.079C949.942 99.0941 950.346 98.2391 950.86 97.5142C951.38 96.7892 951.984 96.2275 952.67 95.8291C953.356 95.4251 954.095 95.2231 954.886 95.2231C955.7 95.2231 956.4 95.4085 956.986 95.7793C957.578 96.1501 958.035 96.6758 958.356 97.3564C958.677 98.0316 958.837 98.8285 958.837 99.7471C958.837 100.909 958.691 101.983 958.397 102.968C958.11 103.947 957.708 104.799 957.194 105.524C956.679 106.244 956.076 106.803 955.384 107.201C954.698 107.6 953.959 107.799 953.168 107.799ZM951.367 103.366C951.367 103.914 951.441 104.387 951.591 104.786C951.74 105.179 951.956 105.48 952.238 105.69C952.52 105.901 952.858 106.006 953.251 106.006C953.71 106.006 954.145 105.84 954.554 105.508C954.969 105.17 955.337 104.708 955.658 104.122C955.979 103.535 956.231 102.86 956.413 102.096C956.596 101.327 956.687 100.516 956.687 99.6641C956.687 99.1107 956.613 98.6375 956.463 98.2446C956.314 97.8517 956.101 97.5501 955.824 97.3398C955.547 97.124 955.213 97.0161 954.82 97.0161C954.355 97.0161 953.915 97.1849 953.5 97.5225C953.09 97.86 952.722 98.3221 952.396 98.9087C952.075 99.4953 951.823 100.17 951.64 100.934C951.458 101.698 951.367 102.508 951.367 103.366ZM960.873 98.8838C960.939 98.1699 961.171 97.5391 961.57 96.9912C961.974 96.4378 962.5 96.0062 963.147 95.6963C963.794 95.3809 964.519 95.2231 965.322 95.2231C966.058 95.2231 966.716 95.3615 967.297 95.6382C967.884 95.9149 968.346 96.2939 968.684 96.7754C969.021 97.2513 969.19 97.7936 969.19 98.4023C969.19 98.7731 969.132 99.1217 969.016 99.4482C968.899 99.7747 968.706 100.112 968.435 100.461C968.169 100.804 967.806 101.189 967.347 101.615C966.888 102.041 966.315 102.536 965.629 103.101L962.674 105.549L962.641 105.699H968.086L967.712 107.5H959.254L959.586 105.898L964.375 101.889C964.923 101.429 965.372 101.042 965.72 100.727C966.069 100.411 966.34 100.137 966.534 99.9048C966.727 99.6668 966.86 99.4482 966.932 99.249C967.01 99.0443 967.048 98.8312 967.048 98.6099C967.048 98.2944 966.965 98.015 966.799 97.7715C966.639 97.528 966.415 97.3371 966.127 97.1987C965.845 97.0604 965.515 96.9912 965.139 96.9912C964.802 96.9912 964.475 97.0604 964.16 97.1987C963.844 97.3315 963.573 97.5363 963.346 97.813C963.119 98.0897 962.964 98.4466 962.881 98.8838C962.549 98.8838 962.215 98.8838 961.877 98.8838C961.539 98.8838 961.205 98.8838 960.873 98.8838ZM974.413 107.799C973.61 107.799 972.891 107.649 972.255 107.351C971.624 107.046 971.123 106.637 970.752 106.122C970.387 105.602 970.204 105.015 970.204 104.362C970.204 104.324 970.204 104.299 970.204 104.288C970.21 104.271 970.213 104.249 970.213 104.221C970.218 104.194 970.221 104.146 970.221 104.08H972.238C972.238 104.086 972.238 104.091 972.238 104.097C972.238 104.102 972.238 104.108 972.238 104.113C972.244 104.49 972.343 104.819 972.537 105.101C972.73 105.383 972.996 105.605 973.334 105.765C973.677 105.926 974.067 106.006 974.504 106.006C975.019 106.006 975.47 105.89 975.857 105.657C976.25 105.425 976.554 105.104 976.77 104.694C976.992 104.285 977.102 103.82 977.102 103.3C977.102 102.863 977.008 102.489 976.82 102.179C976.637 101.869 976.383 101.631 976.056 101.465C975.735 101.294 975.367 101.208 974.952 101.208C974.665 101.208 974.388 101.25 974.122 101.333C973.857 101.41 973.613 101.521 973.392 101.665C973.17 101.803 972.98 101.969 972.819 102.163C972.487 102.163 972.152 102.163 971.815 102.163C971.483 102.163 971.148 102.163 970.81 102.163L972.827 95.522H979.983L979.592 97.3315H974.18L973.193 100.486L973.334 100.494C973.638 100.195 973.989 99.974 974.388 99.8301C974.792 99.6807 975.223 99.606 975.683 99.606C976.33 99.606 976.917 99.7554 977.443 100.054C977.974 100.353 978.394 100.763 978.704 101.283C979.02 101.797 979.177 102.389 979.177 103.059C979.177 103.972 978.981 104.786 978.588 105.5C978.195 106.213 977.639 106.775 976.92 107.185C976.206 107.594 975.37 107.799 974.413 107.799Z" fill="#F5E9DF"/>
<defs>
<filter id="filter0_d_199_14" x="0.540794" y="63.7727" width="1045.46" height="78.7815" filterUnits="userSpaceOnUse" color-interpolation-filters="sRGB">
<feFlood flood-opacity="0" result="BackgroundImageFix"/>
<feColorMatrix in="SourceAlpha" type="matrix" values="0 0 0 0 0 0 0 0 0 0 0 0 0 0 0 0 0 0 127 0" result="hardAlpha"/>
<feOffset dx="10" dy="7"/>
<feGaussianBlur stdDeviation="2"/>
<feComposite in2="hardAlpha" operator="out"/>
<feColorMatrix type="matrix" values="0 0 0 0 0 0 0 0 0 0 0 0 0 0 0 0 0 0 0.25 0"/>
<feBlend mode="normal" in2="BackgroundImageFix" result="effect1_dropShadow_199_14"/>
<feBlend mode="normal" in="SourceGraphic" in2="effect1_dropShadow_199_14" result="shape"/>
</filter>
<filter id="filter1_d_199_14" x="51.2" y="26.8" width="719.577" height="84.4" filterUnits="userSpaceOnUse" color-interpolation-filters="sRGB">
<feFlood flood-opacity="0" result="BackgroundImageFix"/>
<feColorMatrix in="SourceAlpha" type="matrix" values="0 0 0 0 0 0 0 0 0 0 0 0 0 0 0 0 0 0 127 0" result="hardAlpha"/>
<feOffset dx="8" dy="6"/>
<feGaussianBlur stdDeviation="2"/>
<feComposite in2="hardAlpha" operator="out"/>
<feColorMatrix type="matrix" values="0 0 0 0 0 0 0 0 0 0 0 0 0 0 0 0 0 0 0.25 0"/>
<feBlend mode="normal" in2="BackgroundImageFix" result="effect1_dropShadow_199_14"/>
<feBlend mode="normal" in="SourceGraphic" in2="effect1_dropShadow_199_14" result="shape"/>
</filter>
</defs>
</svg>
